#N canvas 136 963 1920 976 12;
#N canvas 0 0 1920 976 PartID 0;
#X obj 14 13 bng 50 250 50 0 empty empty Créer\ une\ fiche\ participant 60 25 0 12 #fcfcfc #000000 #000000;
#X obj 166 581 savepanel;
#X symbolatom 166 660 61 0 0 0 - - - 0;
#X obj 14 79 bng 50 250 50 0 empty empty Ouvrir\ une\ fiche\ participant 60 25 0 12 #fcfcfc #000000 #000000;
#X obj 625 215 openpanel;
#X msg 870 293 read \$1;
#X msg 280 391 clear;
#X symbolatom 870 270 51 0 0 0 - - - 0;
#X text 697 214 Ouvrir une fiche (et réécrire dessus);
#X text 243 361 Créer une fiche;
#X msg 747 270 set \$1;
#X text 11 362 Fiche txt;
#X text 12 235 Date de naissance...:;
#X text 12 194 Prénom..............:;
#X text 12 153 Nom.................:;
#X obj 309 81 r boxtxtPartID;
#X obj 14 386 r deftxtPartID;
#X obj 181 632 r writxtPartID;
#X obj 625 270 s boxtxtPartID;
#X obj 747 294 s writxtPartID;
#X obj 869 317 s deftxtPartID;
#X obj 14 412 text define PartID;
#X obj 392 395 realtime;
#X obj 392 419 s time;
#X obj 445 371 r whattime;
#X msg 434 109 1;
#X msg 471 109 2;
#X msg 506 109 3;
#X obj 434 82 loadbang;
#X text 447 418 Pour save autres fichiers;
#N canvas 663 148 546 497 saisitxt 0;
#X obj 87 117 inlet;
#X obj 53 145 text set PartID;
#X obj 21 43 text get PartID;
#X obj 21 170 s writxtPartID;
#X obj 21 18 inlet;
#X obj 21 117 t b s;
#X msg 21 67 set \$1;
#X symbolatom 21 93 30 0 0 0 - - - 0;
#X connect 0 0 1 1;
#X connect 2 0 6 0;
#X connect 4 0 2 0;
#X connect 5 0 3 0;
#X connect 5 1 1 0;
#X connect 6 0 7 0;
#X connect 7 0 5 0;
#X coords 0 -1 1 1 212 19 2 21 93;
#X restore 174 153 pd saisitxt;
#X msg 309 107 1;
#X msg 346 107 2;
#X msg 381 107 3;
#X obj 166 363 t b b b b;
#X obj 260 520 text set PartID;
#X msg 355 470 1e+15;
#X msg 331 494 list Informations participant \;;
#X msg 260 494 list ...;
#X obj 280 419 s deftxtPartID;
#X obj 260 445 t b b b b b, f 14;
#X msg 287 707 write \$1;
#X obj 287 732 s deftxtPartID;
#X obj 408 707 s cheminPartID;
#X text 519 709 Pour save autres fichiers;
#X obj 166 683 t b s s, f 35;
#X obj 166 708 s boxtxtPartID;
#N canvas 663 148 546 497 saisitxt 0;
#X obj 87 117 inlet;
#X obj 53 145 text set PartID;
#X obj 21 43 text get PartID;
#X obj 21 170 s writxtPartID;
#X obj 21 18 inlet;
#X obj 21 117 t b s;
#X msg 21 67 set \$1;
#X symbolatom 21 93 30 0 0 0 - - - 0;
#X connect 0 0 1 1;
#X connect 2 0 6 0;
#X connect 4 0 2 0;
#X connect 5 0 3 0;
#X connect 5 1 1 0;
#X connect 6 0 7 0;
#X connect 7 0 5 0;
#X coords 0 -1 1 1 212 19 2 21 93;
#X restore 174 193 pd saisitxt;
#N canvas 663 148 546 497 saisitxt 0;
#X obj 87 117 inlet;
#X obj 53 145 text set PartID;
#X obj 21 43 text get PartID;
#X obj 21 170 s writxtPartID;
#X obj 21 18 inlet;
#X obj 21 117 t b s;
#X msg 21 67 set \$1;
#X symbolatom 21 93 30 0 0 0 - - - 0;
#X connect 0 0 1 1;
#X connect 2 0 6 0;
#X connect 4 0 2 0;
#X connect 5 0 3 0;
#X connect 5 1 1 0;
#X connect 6 0 7 0;
#X connect 7 0 5 0;
#X coords 0 -1 1 1 212 19 2 21 93;
#X restore 174 234 pd saisitxt;
#X obj 993 306 s cheminPartID;
#X obj 706 20 loadbang;
#X msg 706 44 \; pd dsp 1;
#X text 775 20 Init : DSP ON;
#X msg 166 507 dir;
#X obj 166 531 pdcontrol;
#X msg 625 143 dir;
#X obj 625 167 pdcontrol;
#X obj 625 240 t b s s s, f 53;
#X obj 166 605 makefilename %s.txt;
#X obj 166 556 makefilename %s/data;
#X obj 625 191 makefilename %s/data;
#X connect 0 0 34 0;
#X connect 1 0 58 0;
#X connect 2 0 45 0;
#X connect 3 0 55 0;
#X connect 4 0 57 0;
#X connect 5 0 20 0;
#X connect 6 0 39 0;
#X connect 7 0 5 0;
#X connect 10 0 19 0;
#X connect 15 0 31 0;
#X connect 15 0 32 0;
#X connect 15 0 33 0;
#X connect 16 0 21 0;
#X connect 17 0 2 0;
#X connect 22 0 23 0;
#X connect 24 0 22 1;
#X connect 25 0 30 1;
#X connect 26 0 47 1;
#X connect 27 0 48 1;
#X connect 28 0 25 0;
#X connect 28 0 26 0;
#X connect 28 0 27 0;
#X connect 31 0 30 0;
#X connect 32 0 47 0;
#X connect 33 0 48 0;
#X connect 34 0 53 0;
#X connect 34 1 40 0;
#X connect 34 2 6 0;
#X connect 34 3 22 0;
#X connect 36 0 35 1;
#X connect 37 0 35 0;
#X connect 38 0 35 0;
#X connect 40 0 38 0;
#X connect 40 1 38 0;
#X connect 40 2 38 0;
#X connect 40 3 37 0;
#X connect 40 4 36 0;
#X connect 41 0 42 0;
#X connect 45 0 46 0;
#X connect 45 1 41 0;
#X connect 45 2 43 0;
#X connect 50 0 51 0;
#X connect 53 0 54 0;
#X connect 54 0 59 0;
#X connect 55 0 56 0;
#X connect 56 0 60 0;
#X connect 57 0 18 0;
#X connect 57 1 10 0;
#X connect 57 2 7 0;
#X connect 57 3 49 0;
#X connect 58 0 2 0;
#X connect 59 0 1 0;
#X connect 60 0 4 0;
#X coords 0 0 1 1 400 350 2 0 0;
#X restore 12 12 pd PartID;
#X obj 422 99 Questionnaire_hyperacousie;
#X obj 422 41 Audiometrie_vocale_MRT;
#X obj 422 12 Audiometrie_tonale;
#X obj 422 70 Audiometrie_vocale_digit;
#X coords 0 0 0.125 0.125 0 0 0;
