#N struct EVA2 float x float y float q;
#N struct EVA float x float y float q;
#N struct struct-EVAi_Hy float x float y float q;
#N struct struct-EVAg_Hy float x float y float q;
#N struct struct-EVAg_Ac float x float y float q;
#N struct struct-EVAi_Ac float x float y float q;
#N canvas 0 0 3200 1775 12;
#N canvas 4 124 3200 1775 part_id 1;
#X obj 15 106 bng 40 250 50 0 empty main_bout1 Créer\ une\ fiche\ participant 50 20 0 12 #fcfcfc #000000 #000000;
#X obj 166 741 savepanel;
#X symbolatom 166 820 61 0 0 0 - - - 0;
#X obj 15 174 bng 40 250 50 0 empty main_bout2 Ouvrir\ une\ fiche\ participant 50 20 0 12 #fcfcfc #000000 #000000;
#X obj 418 336 openpanel;
#X msg 663 414 read \$1;
#X msg 318 523 clear;
#X symbolatom 663 391 57 0 0 0 - - - 0;
#X msg 540 391 set \$1;
#X obj 298 195 r boxtxtPartID;
#X obj 10 499 r deftxtPartID;
#X obj 181 792 r writxtPartID;
#X obj 418 391 s boxtxtPartID;
#X obj 540 415 s writxtPartID;
#X obj 662 438 s deftxtPartID;
#X obj 10 525 text define PartID;
#X obj 433 526 realtime;
#X obj 433 550 s time;
#X obj 486 502 r whattime;
#X msg 456 223 1;
#X msg 493 223 2;
#X msg 528 223 3;
#X obj 456 196 loadbang;
#N canvas 2257 931 843 271 saisitxt 0;
#X obj 87 117 inlet;
#X obj 53 145 text set PartID;
#X obj 21 43 text get PartID;
#X obj 21 170 s writxtPartID;
#X obj 21 18 inlet;
#X obj 21 117 t b s;
#X msg 21 67 set \$1;
#X symbolatom 21 93 30 0 0 0 - - - 0;
#X connect 0 0 1 1;
#X connect 2 0 6 0;
#X connect 4 0 2 0;
#X connect 5 0 3 0;
#X connect 5 1 1 0;
#X connect 6 0 7 0;
#X connect 7 0 5 0;
#X coords 0 -1 1 1 212 19 2 21 93;
#X restore 158 327 pd saisitxt;
#X msg 298 221 1;
#X msg 335 221 2;
#X msg 370 221 3;
#X obj 166 499 t b b b b, f 33;
#X obj 374 778 text set PartID;
#X msg 408 750 1e+15;
#X msg 242 630 list ...;
#X obj 318 551 s deftxtPartID;
#X msg 287 867 write \$1;
#X obj 287 892 s deftxtPartID;
#X obj 408 867 s cheminPartID;
#X obj 166 843 t b s s, f 35;
#X obj 166 868 s boxtxtPartID;
#N canvas 4 124 3200 1775 saisitxt 0;
#X obj 87 117 inlet;
#X obj 53 145 text set PartID;
#X obj 21 43 text get PartID;
#X obj 21 170 s writxtPartID;
#X obj 21 18 inlet;
#X obj 21 117 t b s;
#X msg 21 67 set \$1;
#X symbolatom 21 93 30 0 0 0 - - - 0;
#X connect 0 0 1 1;
#X connect 2 0 6 0;
#X connect 4 0 2 0;
#X connect 5 0 3 0;
#X connect 5 1 1 0;
#X connect 6 0 7 0;
#X connect 7 0 5 0;
#X coords 0 -1 1 1 212 19 2 21 93;
#X restore 158 372 pd saisitxt;
#N canvas 663 148 546 497 saisitxt 0;
#X obj 87 117 inlet;
#X obj 53 145 text set PartID;
#X obj 21 43 text get PartID;
#X obj 21 170 s writxtPartID;
#X obj 21 18 inlet;
#X obj 21 117 t b s;
#X msg 21 67 set \$1;
#X symbolatom 21 93 30 0 0 0 - - - 0;
#X connect 0 0 1 1;
#X connect 2 0 6 0;
#X connect 4 0 2 0;
#X connect 5 0 3 0;
#X connect 5 1 1 0;
#X connect 6 0 7 0;
#X connect 7 0 5 0;
#X coords 0 -1 1 1 212 19 2 21 93;
#X restore 158 417 pd saisitxt;
#X obj 786 427 s cheminPartID;
#X obj 1184 20 loadbang;
#X msg 1184 44 \; pd dsp 1;
#X msg 166 667 dir;
#X obj 166 691 pdcontrol;
#X msg 418 264 dir;
#X obj 418 288 pdcontrol;
#X obj 418 361 t b s s s, f 53;
#X obj 166 765 makefilename %s.txt;
#X obj 166 716 makefilename %s/data;
#X obj 418 312 makefilename %s/data;
#X text 1253 20 Init : DSP ON;
#X text 490 336 Ouvrir une fiche (et réécrire dessus);
#X text 165 476 Créer une fiche;
#X text 516 860 Pour sauvegarder d'autres fichiers, f 18;
#X text 485 545 Pour sauvegarder d'autres fichiers, f 17;
#N canvas 4 59 3200 1775 choixtxt 1;
#X obj 87 579 inlet;
#X obj 53 607 text set PartID;
#X obj 21 68 text get PartID;
#X obj 21 632 s writxtPartID;
#X obj 21 43 inlet;
#X obj 21 579 t b s;
#X msg 21 223 set \$1;
#X obj 21 250 vradio 19 1 0 2 empty empty empty 30 10 0 12 #ffffff #000000 #ffffff 0;
#X obj 21 303 route 0 1;
#X obj 21 174 route Monsieur Madame;
#X msg 21 199 0;
#X msg 93 199 1;
#X msg 53 119 set \$1;
#X msg 21 147 Madame;
#X obj 21 93 t b s;
#X symbolatom 21 550 30 0 0 0 - - - 0;
#X obj 221 333 t b b;
#X obj 21 333 t b b;
#X obj 48 251 cnv 10 1 1 empty main_comm5 Monsieur 0 10 0 12 #fcfcfc #000000 0;
#X obj 48 269 cnv 10 1 1 empty main_comm6 Madame 0 10 0 12 #fcfcfc #000000 0;
#X msg 234 195 color \$1 \$2 \$3;
#X msg 347 124 list #ffffff #000000 #ffffff, f 7;
#X msg 234 124 list #ffffff #ffffff #ffffff, f 7;
#X obj 304 90 inlet;
#X obj 234 90 loadbang;
#X text 291 139 bouton blanc, f 9;
#X text 406 139 bouton noir, f 8;
#X obj 172 382 r tradEN;
#X obj 92 382 r tradFR;
#X obj 53 452 spigot;
#X msg 172 414 0;
#X msg 212 414 1;
#X msg 92 413 1;
#X msg 132 414 0;
#X obj 134 452 spigot;
#X msg 53 481 set Monsieur;
#X msg 134 510 set Sir;
#X obj 372 382 r tradEN;
#X obj 292 382 r tradFR;
#X obj 253 452 spigot;
#X msg 372 414 0;
#X msg 412 414 1;
#X msg 292 413 1;
#X msg 332 414 0;
#X obj 334 452 spigot;
#X msg 253 481 set Madame;
#X msg 334 510 set Madam;
#X connect 0 0 1 1;
#X connect 2 0 14 0;
#X connect 4 0 2 0;
#X connect 5 0 3 0;
#X connect 5 1 1 0;
#X connect 6 0 7 0;
#X connect 7 0 8 0;
#X connect 7 0 21 0;
#X connect 8 0 17 0;
#X connect 8 1 16 0;
#X connect 9 0 10 0;
#X connect 9 1 11 0;
#X connect 10 0 6 0;
#X connect 11 0 6 0;
#X connect 12 0 13 0;
#X connect 13 0 9 0;
#X connect 14 0 13 0;
#X connect 14 1 12 0;
#X connect 15 0 5 0;
#X connect 16 0 15 0;
#X connect 16 1 39 0;
#X connect 16 1 44 0;
#X connect 17 0 15 0;
#X connect 17 1 29 0;
#X connect 17 1 34 0;
#X connect 20 0 7 0;
#X connect 21 0 20 0;
#X connect 22 0 20 0;
#X connect 23 0 22 0;
#X connect 24 0 22 0;
#X connect 27 0 30 0;
#X connect 27 0 31 0;
#X connect 28 0 32 0;
#X connect 28 0 33 0;
#X connect 29 0 35 0;
#X connect 30 0 29 1;
#X connect 31 0 34 1;
#X connect 32 0 29 1;
#X connect 33 0 34 1;
#X connect 34 0 36 0;
#X connect 35 0 15 0;
#X connect 36 0 15 0;
#X connect 37 0 40 0;
#X connect 37 0 41 0;
#X connect 38 0 42 0;
#X connect 38 0 43 0;
#X connect 39 0 45 0;
#X connect 40 0 39 1;
#X connect 41 0 44 1;
#X connect 42 0 39 1;
#X connect 43 0 44 1;
#X connect 44 0 46 0;
#X connect 45 0 15 0;
#X connect 46 0 15 0;
#X coords 0 -1 1 1 212 39 2 21 250;
#X restore 158 262 pd choixtxt;
#X msg 565 223 4;
#X msg 406 221 4;
#X obj 242 581 t b b b b b b, f 14;
#X obj 82 30 cnv 19 204 34 empty empty empty 30 15 0 12 #202020 #404040 0;
#X obj 84 32 cnv 10 200 30 empty main_titre Aupiomètre\ (version\ 0.7) 15 15 0 12 #ffffff #000000 0;
#X obj 356 10 vradio 19 1 0 2 empty empty empty 0 -10 0 12 #fcfcfc #000000 #000000 0;
#X text 335 10 FR;
#X text 335 28 EN;
#X obj 768 117 text define Config;
#X obj 737 36 loadbang;
#X obj 737 177 text get Config;
#X obj 737 60 t b b;
#X msg 737 150 0;
#X text 773 148 Ligne 0 = langue;
#X obj 958 65 r writxtConfig;
#N canvas 0 0 3200 1775 Langue 0;
#X obj 28 19 inlet;
#X obj 28 177 route 0 1;
#X obj 98 114 text set Config;
#X msg 166 85 -1;
#X msg 132 85 0;
#X obj 78 55 t b f b b;
#X obj 78 140 s writxtConfig;
#X text 161 206 Traduction;
#X text 153 43 Enregistrement choix langue, f 15;
#X obj 28 206 s tradFR;
#X obj 93 206 s tradEN;
#X obj 286 11 cnv 19 1000 700 empty empty MAIN 20 12 0 12 #dfdfdf #404040 0;
#X text 418 131 Objets à traduire dans tout le patch, f 18;
#X obj 312 41 r tradFR;
#X obj 377 41 r tradEN;
#X obj 637 41 r tradFR;
#X obj 702 41 r tradEN;
#X msg 637 75 label Créer\ une\ fiche\ participant;
#X msg 701 105 label Create\ a\ participant\ file;
#X obj 981 40 r tradFR;
#X obj 1046 40 r tradEN;
#X msg 981 74 label Ouvrir\ une\ fiche\ participant;
#X msg 1045 104 label Open\ a\ participant\ file;
#X obj 321 177 r tradFR;
#X obj 386 177 r tradEN;
#X obj 646 177 r tradFR;
#X obj 711 177 r tradEN;
#X obj 990 176 r tradFR;
#X obj 1055 176 r tradEN;
#X obj 324 307 r tradFR;
#X obj 389 307 r tradEN;
#X obj 629 307 r tradFR;
#X obj 694 307 r tradEN;
#X obj 803 306 r tradFR;
#X obj 868 306 r tradEN;
#X msg 629 341 label Monsieur;
#X msg 693 371 label Sir;
#X msg 803 340 label Madame;
#X msg 867 370 label Madam;
#X obj 994 307 r tradFR;
#X obj 1059 307 r tradEN;
#X obj 325 435 r tradFR;
#X obj 390 435 r tradEN;
#X obj 498 435 r tradFR;
#X obj 563 435 r tradEN;
#X obj 882 437 r tradFR;
#X obj 947 437 r tradEN;
#X msg 882 471 label Chiffres;
#X msg 946 501 label Digits;
#X obj 1087 435 r tradFR;
#X obj 1152 435 r tradEN;
#X obj 321 566 r tradFR;
#X obj 386 566 r tradEN;
#X msg 1087 469 label Acouphènes;
#X msg 1151 499 label Tinnitus;
#X msg 321 600 label EVA;
#X msg 385 630 label VAS;
#X obj 472 567 r tradFR;
#X obj 537 567 r tradEN;
#X obj 682 565 r tradFR;
#X obj 747 565 r tradEN;
#X msg 682 599 label EVA;
#X msg 746 629 label VAS;
#X msg 472 601 label Hyperacousie;
#X msg 536 631 label Hyperacusis;
#X obj 1301 11 cnv 19 400 700 empty empty PTA\ -\ H&W 20 12 0 12 #dfdfdf #404040 0;
#X obj 1317 39 r tradFR;
#X obj 1382 39 r tradEN;
#X obj 1315 148 r tradFR;
#X obj 1380 148 r tradEN;
#X msg 1315 172 label Bouton\ réponse;
#X msg 1379 196 label Response\ button;
#X obj 1317 254 r tradFR;
#X obj 1382 254 r tradEN;
#X obj 1318 358 r tradFR;
#X obj 1383 358 r tradEN;
#X obj 1317 587 r tradFR;
#X obj 1382 587 r tradEN;
#X msg 1317 278 label Sélectionner\ les\ oreilles\ :;
#X msg 1381 301 label Select\ ears:;
#X msg 1318 382 label Gauche;
#X msg 1382 405 label Left;
#X msg 1317 611 label Droite;
#X msg 1381 635 label Right;
#X obj 1312 468 r tradFR;
#X obj 1377 468 r tradEN;
#X obj 1511 587 r tradFR;
#X obj 1576 587 r tradEN;
#X msg 1312 492 label Sélectionner\ les\ fréquences\ :;
#X msg 1376 515 label Select\ frequencies:;
#X msg 1511 611 label Enregistrer;
#X msg 1575 636 label Save;
#X obj 841 565 r tradFR;
#X obj 906 565 r tradEN;
#X msg 841 599 label Divers;
#X msg 905 629 label Miscellaneous;
#X obj 286 167 cnv 19 1000 1 empty empty empty 20 12 0 12 #202020 #404040 0;
#X obj 287 558 cnv 19 1000 1 empty empty empty 20 12 0 12 #202020 #404040 0;
#X obj 287 428 cnv 19 1000 1 empty empty empty 20 12 0 12 #202020 #404040 0;
#X obj 287 297 cnv 19 1000 1 empty empty empty 20 12 0 12 #202020 #404040 0;
#X msg 994 341 label Audiométrie\ tonale;
#X msg 1058 371 label Pure\ tone\ audiometry;
#X msg 389 499 label Graph;
#X msg 325 469 label Graphique;
#X msg 1317 63 label Démarrer/arrêter\ :\ prêt\ à\ démarrer;
#X obj 1713 11 cnv 19 400 700 empty empty PTA\ -\ GRAPH 20 12 0 12 #dfdfdf #404040 0;
#X obj 1737 43 r tradFR;
#X obj 1802 43 r tradEN;
#X msg 1737 67 label Ouvrir\ un\ fichier\ résultat;
#X msg 1801 97 label Open\ a\ result\ file;
#X obj 1738 162 r tradFR;
#X obj 1803 162 r tradEN;
#X msg 1738 186 label Audiogramme\ tonal;
#X msg 1802 216 label Pure\ tone\ audiogram;
#X obj 1736 279 r tradFR;
#X obj 1801 279 r tradEN;
#X msg 1736 303 label Seuil\ (dB\ HL);
#X msg 1800 334 label Thres.\ (dB\ HL);
#X obj 1737 402 r tradFR;
#X obj 1802 402 r tradEN;
#X msg 1737 426 label Fréquence\ (kHz);
#X msg 1801 457 label Frequency\ (kHz);
#X msg 1770 633 \; Gauche rename Left \; Left xticks 0 1 1 \;;
#X msg 1738 575 \; Left rename Gauche \; Gauche xticks 0 1 1 \;;
#X msg 1941 630 \; Droite rename Right \; Right xticks 0 1 1 \;;
#X msg 1908 574 \; Right rename Droite \; Droite xticks 0 1 1 \;;
#X obj 1738 534 r tradFR;
#X obj 1803 534 r tradEN;
#X text 1870 535 Renommer légende (et actualiser);
#X obj 2533 11 cnv 19 300 170 empty empty SA\ -\ MRT 20 12 0 12 #dfdfdf #404040 0;
#X obj 2556 39 r tradFR;
#X obj 2621 39 r tradEN;
#X msg 2556 73 label Démarrer/arrêter;
#X msg 1381 87 label Start/stop:\ ready\ to\ start;
#X obj 2533 186 cnv 19 300 170 empty empty SA\ -\ Digits 20 12 0 12 #dfdfdf #404040 0;
#X obj 2552 213 r tradFR;
#X obj 2617 213 r tradEN;
#X msg 2552 247 label Démarrer/arrêter;
#X obj 2533 362 cnv 19 300 170 empty empty SA\ -\ Logatomes 20 12 0 12 #dfdfdf #404040 0;
#X obj 2550 387 r tradFR;
#X obj 2615 387 r tradEN;
#X msg 2550 421 label Démarrer/arrêter;
#X obj 2849 9 cnv 19 1000 700 empty empty Tinnitus\ -\ THI 20 12 0 12 #dfdfdf #404040 0;
#X obj 3863 9 cnv 19 1000 700 empty empty Tinnitus\ -\ EVA 20 12 0 12 #dfdfdf #404040 0;
#X obj 3305 159 r tradFR;
#X obj 3405 159 r tradEN;
#X obj 3244 42 r tradFR;
#X obj 3309 42 r tradEN;
#X msg 321 211 label Civilité..........:;
#X msg 385 241 label Civility..........:;
#X msg 388 371 label Date\ of\ birth.....:;
#X msg 646 211 label Nom...............:;
#X msg 710 241 label First\ name........:;
#X msg 990 210 label Prénom............:;
#X msg 1054 240 label Last\ name.........:;
#X msg 324 341 label Date\ de\ naissance\ :;
#X obj 2123 11 cnv 19 400 700 empty empty PTA\ -\ CALIBRATION 20 12 0 12 #dfdfdf #404040 0;
#X obj 2140 43 r tradFR;
#X obj 2205 43 r tradEN;
#X msg 2140 77 label Générateur\ de\ tons\ purs;
#X msg 2204 107 label Tone\ generator;
#X obj 2142 172 r tradFR;
#X obj 2207 172 r tradEN;
#X msg 2142 206 label Démarrer/arrêter;
#X msg 2206 236 label Start/stop;
#X obj 2142 305 r tradFR;
#X obj 2207 305 r tradEN;
#X msg 2142 339 label Augmenter\ l'intensité;
#X msg 2206 369 label Increase\ intensity;
#X obj 2141 435 r tradFR;
#X obj 2206 435 r tradEN;
#X msg 2141 469 label Diminuer\ l'intensité;
#X msg 2205 499 label Decrease\ intensity;
#X msg 2614 451 label Start/stop;
#X msg 2616 277 label Start/stop;
#X msg 2620 103 label Start/stop;
#X obj 2533 541 cnv 19 300 170 empty empty SA\ -\ CRM 20 12 0 12 #dfdfdf #404040 0;
#X obj 2556 567 r tradFR;
#X obj 2621 567 r tradEN;
#X msg 2556 601 label Démarrer/arrêter;
#X msg 2620 631 label Start/stop;
#X obj 3902 478 r tradFR;
#X obj 3967 479 r tradEN;
#X msg 3901 504 label Gêne\ maximale\ imaginable;
#X msg 3920 528 label Maximum\ discomfort\ imaginable;
#X obj 4202 478 r tradFR;
#X obj 4267 479 r tradEN;
#X msg 4201 504 label Pas\ de\ gêne;
#X msg 4210 528 label No\ discomfort;
#X obj 3905 603 r tradFR;
#X obj 3970 604 r tradEN;
#X msg 3904 629 label Intensité\ maximale\ imaginable, f 38;
#X msg 3913 653 label Maximum\ intensity\ imaginable, f 37;
#X obj 4230 602 r tradFR;
#X obj 4295 603 r tradEN;
#X msg 4229 628 label Pas\ d'acouphène;
#X obj 4461 598 r tradFR;
#X obj 4526 599 r tradEN;
#X msg 4460 624 label Enregistrer;
#X msg 4479 648 label \ \ \ \ \ \ \ Save;
#X msg 4238 652 label \ \ No\ tinnitus;
#X obj 4872 7 cnv 19 1000 700 empty empty Hyperacusis\ -\ HQ 20 12 0 12 #dfdfdf #404040 0;
#X obj 5883 9 cnv 19 1000 700 empty empty Hyperacusis\ -\ EVA 20 12 0 12 #dfdfdf #404040 0;
#X obj 6893 9 cnv 19 1000 700 empty empty 15iSSQ 20 12 0 12 #dfdfdf #404040 0;
#X obj 3876 40 r tradFR;
#X obj 3956 40 r tradEN;
#X obj 3876 193 label2lines;
#X obj 3876 64 t b b b;
#X obj 3956 64 t b b b;
#X msg 3896 89 Les\\\ acouphènes\\\ sont\\\ des\\\ bruits\\\ (sifflements\\\,\\\ bourdonnements\\\,\\\ grésillements\\\,\\\ etc.)\\\ que\\\ l’on\\\ entend\\\ dans, f 117;
#X msg 3876 113 une\ oreille\ (ou\ les\ deux)\ ou\ dans\ sa\ tête\ sans\ qu'ils\ aient\ été\ émis\ par\ une\ source\ du\ monde\ extérieur., f 122;
#X msg 3976 139 Tinnitus\\\ is\\\ a\\\ noise\\\ (hissing\\\,\\\ buzzing\\\,\\\ crackling\\\,\\\ etc.)\\\ that\\\ is\\\ heard\\\ in\\\ one\\\ (or\\\ both)\\\ ears\\\ or\\\ in\\\ the, f 122;
#X msg 3957 166 head\ without\ having\ been\ emitted\ by\ a\ source\ in\ the\ outside\ world., f 77;
#X obj 3876 217 s tinn_eva_comm1;
#X obj 3897 253 r tradFR;
#X obj 3977 253 r tradEN;
#X obj 3897 406 label2lines;
#X obj 3897 277 t b b b;
#X obj 3977 277 t b b b;
#X msg 3917 302 1)\ Evaluez\ la\ gêne\ que\ vous\ occasionne\ votre, f 52;
#X msg 3897 326 acouphène\ dans\ votre\ vie\ quotidienne\ :, f 44;
#X msg 3997 352 1)\ Evaluate\ the\ discomfort\ your\ tinnitus;
#X msg 3978 379 causes\ you\ in\ your\ daily\ life:;
#X obj 4450 390 r tradFR;
#X obj 4560 390 r tradEN;
#X obj 4450 533 label2lines;
#X obj 4450 414 t b b b;
#X obj 4560 414 t b b b;
#X msg 4470 439 2)\ Evaluez\ l'intensité\ de\ votre;
#X msg 4450 463 acouphène\ :;
#X msg 4580 469 2)\ Assess\ the\ intensity\ of\ your;
#X msg 4561 496 tinnitus:;
#X obj 4460 674 s tinn_eva_butt1;
#X obj 3897 430 s tinn_eva_comm2;
#X obj 3901 554 s tinn_eva_comm3;
#X obj 4201 554 s tinn_eva_comm4;
#X obj 4450 557 s tinn_eva_comm5;
#X obj 3904 679 s tinn_eva_comm6;
#X obj 4229 678 s tinn_eva_comm7;
#X obj 312 137 s main_titre;
#X obj 637 137 s main_bout1;
#X obj 981 136 s main_bout2;
#X obj 321 273 s main_comm1;
#X obj 646 273 s main_comm2;
#X obj 990 272 s main_comm3;
#X obj 324 403 s main_comm4;
#X obj 629 403 s main_comm5;
#X obj 803 402 s main_comm6;
#X obj 994 403 s main_comm7;
#X obj 325 531 s main_bout4;
#X obj 498 531 s main_comm8;
#X obj 882 533 s main_bout6;
#X obj 1087 531 s main_comm9;
#X obj 321 662 s main_bout9;
#X obj 472 663 s main_comm10;
#X obj 682 661 s main_bout11;
#X obj 841 661 s main_comm11;
#X msg 312 75 label Aupiomètre\ (version\ 0.7);
#X msg 376 105 label Aupiometer\ (version\ 0.7);
#X obj 3244 110 s thi_butt1;
#X obj 1317 113 s AT_bout1;
#X obj 1315 223 s AT_bout2;
#X obj 1317 328 s AT_comm1;
#X obj 1318 431 s AT_bout3;
#X obj 1317 660 s AT_bout4;
#X obj 1312 542 s AT_comm2;
#X obj 1511 662 s AT_bout5;
#X obj 1737 129 s pta-graph_butt1;
#X obj 1738 248 s pta-graph_comm1;
#X obj 1736 364 s pta-graph_comm2;
#X obj 1737 487 s pta-graph_comm3;
#X obj 2140 139 s pta-calib_comm1;
#X obj 2142 268 s pta-calib_butt1;
#X obj 2142 401 s pta-calib_butt2;
#X obj 2141 531 s pta-calib_butt3;
#X obj 2556 135 s sa-mrt_butt1;
#X obj 2552 309 s sa-digits_butt1;
#X obj 2550 483 s sa-logatomes_butt1;
#X obj 2556 663 s sa-crm_butt1;
#X floatatom 4885 197 5 0 0 0 - - - 0;
#X obj 4885 251 f;
#X obj 4923 251 + 1;
#X obj 4885 222 until;
#X floatatom 4885 278 5 0 0 0 - - - 0;
#X obj 5055 357 bng 19 250 50 0 empty empty empty 0 -10 0 12 #fcfcfc #000000 #000000;
#X msg 4928 197 0;
#X obj 4885 541 list append;
#X obj 5033 494 list prepend;
#X obj 5130 494 t l;
#X msg 5033 443 13;
#X obj 5033 467 list tosymbol;
#X obj 4885 463 + 1;
#X msg 4885 434 1;
#X msg 4923 434 0;
#X obj 4885 512 sel 1;
#X obj 4885 385 t b b a;
#X text 5065 442 saut ligne, f 11;
#X obj 4920 463 t f;
#X text 4926 482 output si n msgs recus, f 12;
#X obj 4885 301 t f f;
#X obj 4917 326 + 1;
#X obj 4885 487 ==;
#X text 5077 356 clear;
#X text 4974 542 2x le nombre de lignes;
#X msg 4917 102 read hyperacusis_hq_fr.txt;
#X msg 5060 71 read hyperacusis_hq_en.txt;
#X obj 4885 49 r tradFR;
#X obj 4885 73 t b b;
#X obj 4885 143 t b b b;
#X obj 5028 42 t b b;
#X obj 5028 18 r tradEN;
#X obj 4966 143 text define hq;
#X obj 4885 173 text size hq;
#X obj 4885 354 text get hq;
#X obj 5187 139 r tradFR;
#X obj 5287 139 r tradEN;
#X obj 5215 384 label2lines;
#X obj 5187 163 t b b b;
#X obj 5287 163 t b b b;
#X floatatom 2865 198 5 0 0 0 - - - 0;
#X obj 2865 252 f;
#X obj 2903 252 + 1;
#X obj 2865 223 until;
#X floatatom 2865 279 5 0 0 0 - - - 0;
#X obj 3035 358 bng 19 250 50 0 empty empty empty 0 -10 0 12 #fcfcfc #000000 #000000;
#X msg 2908 198 0;
#X obj 2865 542 list append;
#X obj 3013 495 list prepend;
#X obj 3110 495 t l;
#X msg 3013 444 13;
#X obj 3013 468 list tosymbol;
#X obj 2865 464 + 1;
#X msg 2865 435 1;
#X msg 2903 435 0;
#X obj 2865 513 sel 1;
#X obj 2865 386 t b b a;
#X text 3045 443 saut ligne, f 11;
#X obj 2900 464 t f;
#X text 2906 483 output si n msgs recus, f 12;
#X obj 2865 302 t f f;
#X obj 2897 327 + 1;
#X obj 2865 488 ==;
#X text 3057 357 clear;
#X text 2954 543 2x le nombre de lignes;
#X obj 2865 50 r tradFR;
#X obj 2865 74 t b b;
#X obj 2865 144 t b b b;
#X obj 3008 49 t b b;
#X obj 3008 25 r tradEN;
#X obj 2946 144 text define thi;
#X obj 2865 174 text size thi;
#X obj 2865 355 text get thi;
#X msg 2897 98 read tinnitus_thi_fr.txt;
#X msg 3040 73 read tinnitus_thi_en.txt;
#X floatatom 6916 196 5 0 0 0 - - - 0;
#X obj 6916 250 f;
#X obj 6954 250 + 1;
#X obj 6916 221 until;
#X floatatom 6916 277 5 0 0 0 - - - 0;
#X obj 7086 356 bng 19 250 50 0 empty empty empty 0 -10 0 12 #fcfcfc #000000 #000000;
#X msg 6959 196 0;
#X obj 6916 540 list append;
#X obj 7064 493 list prepend;
#X obj 7161 493 t l;
#X msg 7064 442 13;
#X obj 7064 466 list tosymbol;
#X obj 6916 462 + 1;
#X msg 6916 433 1;
#X msg 6954 433 0;
#X obj 6916 511 sel 1;
#X obj 6916 384 t b b a;
#X text 7096 441 saut ligne, f 11;
#X obj 6951 462 t f;
#X text 6957 481 output si n msgs recus, f 12;
#X obj 6916 300 t f f;
#X obj 6948 325 + 1;
#X obj 6916 486 ==;
#X text 7108 355 clear;
#X text 7005 541 2x le nombre de lignes;
#X obj 6916 48 r tradFR;
#X obj 6916 72 t b b;
#X obj 6916 142 t b b b;
#X obj 7129 72 t b b;
#X obj 7129 48 r tradEN;
#X obj 6997 142 text define ssq;
#X obj 6916 172 text size ssq;
#X obj 6916 353 text get ssq;
#X msg 6948 101 read misc_15issq_fr.txt;
#X msg 7161 101 read misc_15issq_en.txt;
#X obj 3305 241 s thi_comm1;
#X obj 2865 638 s thi_comm2;
#X obj 3322 374 s thi_comm3;
#X obj 3323 480 s thi_comm4;
#X obj 4886 656 s hq_comm2;
#X obj 5355 559 s hq_comm3;
#X obj 5215 408 s hq_comm1;
#X obj 7129 160 r tradFR;
#X obj 7195 160 r tradEN;
#X obj 7128 236 s ssq-slider_comm1;
#X obj 7368 69 r tradFR;
#X obj 7434 69 r tradEN;
#X obj 7367 145 s ssq-slider_togg1;
#X msg 7128 186 label Non\\\,\\\ pas\\\ du\\\ tout\\\ \\\ \\\ \\\ \\\ \\\ \\\ \\\ \\\ \\\ \\\ \\\ \\\ \\\ \\\ \\\ \\\ \\\ \\\ \\\ \\\ \\\ \\\ \\\ \\\ \\\ \\\ \\\ \\\ \\\ \\\ Oui\\\,\\\ parfaitement, f 107;
#X msg 7145 210 label Not\ at\ all\ \ \ \ \ \ \ \ \ \ \ \ \ \ \ \ \ \ \ \ \ \ \ \ \ \ \ \ \ \ \ \ \ \ \ \ \ \ Perfectly, f 103;
#X msg 7367 95 label Non\ applicable;
#X msg 7384 119 label Not\ applicable;
#N canvas 1587 0 1594 1756 label_config 0;
#X msg 330 77 size 10;
#X msg 225 77 color 0 0 22;
#X msg 397 77 vis_size 1 1;
#X msg 100 77 label_pos 0 10;
#X obj 172 194 outlet;
#X obj 100 35 loadbang;
#X msg 499 77 label_font 0 12;
#X obj 405 196 outlet;
#X obj 638 197 outlet;
#X msg 537 226 pos 10 680;
#X msg 49 211 pos 7 30;
#X obj 798 207 outlet;
#X msg 697 236 pos 10 1110;
#X msg 324 225 pos 10 215;
#X connect 0 0 4 0;
#X connect 0 0 7 0;
#X connect 0 0 8 0;
#X connect 0 0 11 0;
#X connect 1 0 4 0;
#X connect 1 0 7 0;
#X connect 1 0 8 0;
#X connect 1 0 11 0;
#X connect 2 0 4 0;
#X connect 2 0 7 0;
#X connect 2 0 8 0;
#X connect 2 0 11 0;
#X connect 3 0 4 0;
#X connect 3 0 7 0;
#X connect 3 0 8 0;
#X connect 3 0 11 0;
#X connect 5 0 3 0;
#X connect 5 0 1 0;
#X connect 5 0 0 0;
#X connect 5 0 2 0;
#X connect 5 0 6 0;
#X connect 5 0 10 0;
#X connect 5 0 13 0;
#X connect 5 0 9 0;
#X connect 5 0 12 0;
#X connect 6 0 4 0;
#X connect 6 0 7 0;
#X connect 6 0 8 0;
#X connect 6 0 11 0;
#X connect 9 0 8 0;
#X connect 10 0 4 0;
#X connect 12 0 11 0;
#X connect 13 0 7 0;
#X restore 5230 447 pd label_config;
#X obj 5914 434 r tradFR;
#X obj 5979 435 r tradEN;
#X msg 5913 460 label Gêne\ maximale\ imaginable;
#X msg 5932 484 label Maximum\ discomfort\ imaginable;
#X obj 6214 434 r tradFR;
#X obj 6279 435 r tradEN;
#X msg 6213 460 label Pas\ de\ gêne;
#X msg 6222 484 label No\ discomfort;
#X obj 5917 559 r tradFR;
#X obj 5982 560 r tradEN;
#X msg 5916 585 label Intensité\ maximale\ imaginable, f 38;
#X msg 5925 609 label Maximum\ intensity\ imaginable, f 37;
#X obj 6242 558 r tradFR;
#X obj 6307 559 r tradEN;
#X obj 6473 554 r tradFR;
#X obj 6538 555 r tradEN;
#X msg 6472 580 label Enregistrer;
#X msg 6491 604 label \ \ \ \ \ \ \ Save;
#X obj 5888 46 r tradFR;
#X obj 5978 46 r tradEN;
#X obj 5888 148 label2lines;
#X obj 5888 70 t b b b;
#X obj 5909 209 r tradFR;
#X obj 5989 209 r tradEN;
#X obj 5909 362 label2lines;
#X obj 5909 233 t b b b;
#X obj 5989 233 t b b b;
#X obj 6462 346 r tradFR;
#X obj 6583 346 r tradEN;
#X obj 6462 489 label2lines;
#X obj 6462 370 t b b b;
#X obj 6583 370 t b b b;
#X msg 6482 395 2)\ Evaluez\ l'intensité\ de\ votre;
#X msg 6602 425 2)\ Assess\ the\ intensity\ of\ your;
#X msg 5908 95 L'hyperacousie\\\ est\\\ une\\\ intolérance\\\ au\\\ bruit\\\,\\\ y\\\ compris\\\ les\\\ bruits\\\ faibles\\\ ou\\\ qui\\\ peuvent\\\ être\\\ tolérés, f 117;
#X msg 5888 119 par\ les\ autres.;
#X msg 5978 70 label Hyperacusis\\\ is\\\ an\\\ intolerance\\\ to\\\ noise\\\,\\\ including\\\ quiet\\\ noises\\\ or\\\ those\\\ that\\\ can\\\ be\\\ tolerated\\\ by\\\ others., f 127;
#X obj 5888 172 s hyperac_eva_comm1;
#X msg 5929 258 1)\ Evaluez\ la\ gêne\ que\ vous\ occasionne\ votre, f 52;
#X msg 5909 282 hyperacousie\ dans\ votre\ vie\ quotidienne\ :;
#X msg 6009 308 1)\ Evaluate\ the\ discomfort\ your\ hyperacusis;
#X msg 5990 335 causes\ you\ in\ your\ daily\ life:;
#X obj 5909 386 s hyperac_eva_comm2;
#X obj 5913 510 s hyperac_eva_comm3;
#X obj 6213 510 s hyperac_eva_comm4;
#X msg 6462 419 hyperacousie\ :;
#X msg 6583 452 hyperacusis:;
#X obj 6462 513 s hyperac_eva_comm5;
#X obj 5916 635 s hyperac_eva_comm6;
#X msg 6241 584 label Pas\ d'hyperacousie;
#X msg 6250 608 label \ \ No\ hyperacusis;
#X obj 6241 634 s hyperac_eva_comm7;
#X obj 6472 630 s hyperac_eva_butt1;
#N canvas 617 314 1286 369 label_config 0;
#X msg 258 54 size 10;
#X msg 153 54 color 0 0 22;
#X msg 325 54 vis_size 1 1;
#X msg 28 54 label_pos 0 10;
#X obj 28 100 outlet;
#X obj 28 12 loadbang;
#X msg 427 54 label_font 0 12;
#X connect 0 0 4 0;
#X connect 1 0 4 0;
#X connect 2 0 4 0;
#X connect 3 0 4 0;
#X connect 5 0 3 0;
#X connect 5 0 1 0;
#X connect 5 0 0 0;
#X connect 5 0 2 0;
#X connect 5 0 6 0;
#X connect 6 0 4 0;
#X restore 6390 170 pd label_config;
#N canvas 1587 0 1594 1756 label_config 0;
#X msg 258 54 size 10;
#X msg 153 54 color 0 0 22;
#X msg 325 54 vis_size 1 1;
#X msg 28 54 label_pos 0 10;
#X obj 28 100 outlet;
#X obj 28 12 loadbang;
#X msg 427 54 label_font 0 12;
#X obj 370 141 outlet;
#X obj 523 144 outlet;
#X obj 690 164 outlet;
#X obj 193 173 outlet;
#X msg 90 204 pos 7 20;
#X obj 840 164 outlet;
#X obj 1008 170 outlet;
#X msg 737 195 pos 10 1600;
#X msg 905 201 pos 10 2050;
#X msg 303 194 pos 10 225;
#X msg 445 196 pos 10 690;
#X msg 587 195 pos 10 1150;
#X connect 0 0 4 0;
#X connect 0 0 7 0;
#X connect 0 0 8 0;
#X connect 0 0 9 0;
#X connect 0 0 10 0;
#X connect 0 0 12 0;
#X connect 0 0 13 0;
#X connect 1 0 4 0;
#X connect 1 0 7 0;
#X connect 1 0 8 0;
#X connect 1 0 9 0;
#X connect 1 0 10 0;
#X connect 1 0 12 0;
#X connect 1 0 13 0;
#X connect 2 0 4 0;
#X connect 2 0 7 0;
#X connect 2 0 8 0;
#X connect 2 0 9 0;
#X connect 2 0 10 0;
#X connect 2 0 12 0;
#X connect 2 0 13 0;
#X connect 3 0 4 0;
#X connect 3 0 7 0;
#X connect 3 0 8 0;
#X connect 3 0 9 0;
#X connect 3 0 10 0;
#X connect 3 0 12 0;
#X connect 3 0 13 0;
#X connect 5 0 3 0;
#X connect 5 0 1 0;
#X connect 5 0 0 0;
#X connect 5 0 2 0;
#X connect 5 0 6 0;
#X connect 5 0 17 0;
#X connect 5 0 18 0;
#X connect 5 0 11 0;
#X connect 5 0 14 0;
#X connect 5 0 15 0;
#X connect 5 0 16 0;
#X connect 6 0 4 0;
#X connect 6 0 7 0;
#X connect 6 0 8 0;
#X connect 6 0 9 0;
#X connect 6 0 10 0;
#X connect 6 0 12 0;
#X connect 6 0 13 0;
#X connect 11 0 10 0;
#X connect 14 0 12 0;
#X connect 15 0 13 0;
#X connect 16 0 7 0;
#X connect 17 0 8 0;
#X connect 18 0 9 0;
#X restore 7183 344 pd label_config;
#N canvas 617 314 1269 369 label_config 0;
#X msg 258 54 size 10;
#X msg 153 54 color 0 0 22;
#X msg 325 54 vis_size 1 1;
#X msg 28 54 label_pos 0 10;
#X obj 28 100 outlet;
#X obj 28 12 loadbang;
#X msg 427 54 label_font 0 12;
#X connect 0 0 4 0;
#X connect 1 0 4 0;
#X connect 2 0 4 0;
#X connect 3 0 4 0;
#X connect 5 0 3 0;
#X connect 5 0 1 0;
#X connect 5 0 0 0;
#X connect 5 0 2 0;
#X connect 5 0 6 0;
#X connect 6 0 4 0;
#X restore 4426 254 pd label_config;
#N canvas 7 763 1989 708 label_config 0;
#X msg 409 113 size 10;
#X msg 304 113 color 0 0 22;
#X msg 476 113 vis_size 1 1;
#X msg 179 113 label_pos 0 10;
#X obj 179 159 outlet;
#X obj 179 71 loadbang;
#X msg 578 113 label_font 0 12;
#X obj 276 176 outlet;
#X obj 395 194 outlet;
#X obj 560 210 outlet;
#X obj 709 211 outlet;
#X msg 114 234 pos 7 20;
#X obj 846 207 outlet;
#X msg 242 236 pos 10 230;
#X msg 352 234 pos 10 680;
#X msg 523 241 pos 10 1140;
#X msg 643 287 pos 10 1600;
#X msg 780 283 pos 10 2060;
#X connect 0 0 4 0;
#X connect 0 0 7 0;
#X connect 0 0 8 0;
#X connect 0 0 9 0;
#X connect 0 0 10 0;
#X connect 0 0 12 0;
#X connect 1 0 4 0;
#X connect 1 0 7 0;
#X connect 1 0 8 0;
#X connect 1 0 9 0;
#X connect 1 0 10 0;
#X connect 1 0 12 0;
#X connect 2 0 4 0;
#X connect 2 0 7 0;
#X connect 2 0 8 0;
#X connect 2 0 9 0;
#X connect 2 0 10 0;
#X connect 2 0 12 0;
#X connect 3 0 4 0;
#X connect 3 0 7 0;
#X connect 3 0 8 0;
#X connect 3 0 9 0;
#X connect 3 0 10 0;
#X connect 3 0 12 0;
#X connect 5 0 3 0;
#X connect 5 0 1 0;
#X connect 5 0 0 0;
#X connect 5 0 2 0;
#X connect 5 0 6 0;
#X connect 5 0 11 0;
#X connect 5 0 13 0;
#X connect 5 0 14 0;
#X connect 5 0 15 0;
#X connect 5 0 16 0;
#X connect 5 0 17 0;
#X connect 6 0 4 0;
#X connect 6 0 7 0;
#X connect 6 0 8 0;
#X connect 6 0 9 0;
#X connect 6 0 10 0;
#X connect 6 0 12 0;
#X connect 11 0 4 0;
#X connect 13 0 7 0;
#X connect 14 0 8 0;
#X connect 15 0 9 0;
#X connect 16 0 10 0;
#X connect 17 0 12 0;
#X restore 3047 203 pd label_config;
#N canvas 617 314 1177 369 label_config 0;
#X msg 258 54 size 10;
#X msg 153 54 color 0 0 22;
#X msg 325 54 vis_size 1 1;
#X msg 28 54 label_pos 0 10;
#X obj 28 100 outlet;
#X obj 28 12 loadbang;
#X msg 427 54 label_font 0 12;
#X connect 0 0 4 0;
#X connect 1 0 4 0;
#X connect 2 0 4 0;
#X connect 3 0 4 0;
#X connect 5 0 3 0;
#X connect 5 0 1 0;
#X connect 5 0 0 0;
#X connect 5 0 2 0;
#X connect 5 0 6 0;
#X connect 6 0 4 0;
#X restore 2275 43 pd label_config;
#N canvas 617 314 1244 369 label_config 0;
#X msg 258 54 size 10;
#X msg 153 54 color 0 0 22;
#X msg 325 54 vis_size 1 1;
#X msg 28 54 label_pos 0 10;
#X obj 28 100 outlet;
#X obj 28 12 loadbang;
#X msg 427 54 label_font 0 12;
#X connect 0 0 4 0;
#X connect 1 0 4 0;
#X connect 2 0 4 0;
#X connect 3 0 4 0;
#X connect 5 0 3 0;
#X connect 5 0 1 0;
#X connect 5 0 0 0;
#X connect 5 0 2 0;
#X connect 5 0 6 0;
#X connect 6 0 4 0;
#X restore 1963 282 pd label_config;
#N canvas 511 751 1242 338 label_config 0;
#X msg 258 54 size 10;
#X msg 153 54 color 0 0 22;
#X msg 325 54 vis_size 1 1;
#X msg 28 54 label_pos 0 10;
#X obj 28 100 outlet;
#X obj 28 12 loadbang;
#X msg 427 54 label_font 0 12;
#X connect 0 0 4 0;
#X connect 1 0 4 0;
#X connect 2 0 4 0;
#X connect 3 0 4 0;
#X connect 5 0 3 0;
#X connect 5 0 1 0;
#X connect 5 0 0 0;
#X connect 5 0 2 0;
#X connect 5 0 6 0;
#X connect 6 0 4 0;
#X restore 1526 374 pd label_config;
#N canvas 511 751 1242 338 label_config 0;
#X msg 258 54 size 10;
#X msg 153 54 color 0 0 22;
#X msg 325 54 vis_size 1 1;
#X msg 28 54 label_pos 0 10;
#X obj 28 100 outlet;
#X obj 28 12 loadbang;
#X msg 427 54 label_font 0 12;
#X connect 0 0 4 0;
#X connect 1 0 4 0;
#X connect 2 0 4 0;
#X connect 3 0 4 0;
#X connect 5 0 3 0;
#X connect 5 0 1 0;
#X connect 5 0 0 0;
#X connect 5 0 2 0;
#X connect 5 0 6 0;
#X connect 6 0 4 0;
#X restore 509 175 pd label_config;
#X msg 498 469 label Audiométrie\ vocale\ [NON\ CALIBRE];
#X msg 562 499 label Speech\ audiometry\ [NOT\ CALIBRATED];
#X msg 3406 236 label Tinnitus\ Handicap\ Inventory\ (THI)\ \ \ \ \ \ \ \ \ \ \ \ \ \ \ \ \ \ \ \ \ \ \ \ \ \ \ \ \ \ \ \ \ \ \ \ \ \ \ \ \ \ \ \ \ \ Yes\ \ \ \ \ \ Sometimes\ \ \ \ \ \ \ No, f 46;
#X obj 3339 582 s thi_comm5;
#X obj 3338 684 s thi_comm6;
#X msg 2865 581 label \$1\$2\$3\$4\$5\$6\$7\$8\$9\$10\$11\$12\$13\$14\$15\$16\$17\$18\$19\$20\$21\$22\$23\$24\$25\$26\$27\$28\$29\$30\$31\$32\$33\$34\$35\$36\$37\$38\$39\$40;
#X msg 3322 317 label \$41\$42\$43\$44\$45\$46\$47\$48\$49\$50\$51\$52\$53\$54\$55\$56\$57\$58\$59\$60\$61\$62\$63\$64\$65\$66\$67\$68\$69\$70\$71\$72\$73\$74\$75\$76\$77\$78\$79\$80, f 70;
#X msg 3323 409 label \$81\$82\$83\$84\$85\$86\$87\$88\$89\$90\$91\$92\$93\$94\$95\$96\$97\$98\$99\$100\$101\$102\$103\$104\$105\$106\$107\$108\$109\$110\$111\$112\$113\$114\$115\$116\$117\$118\$119\$120\$121\$122, f 72;
#X msg 3339 511 label \$123\$124\$125\$126\$127\$128\$129\$130\$131\$132\$133\$134\$135\$136\$137\$138\$139\$140\$141\$142\$143\$144\$145\$146\$147\$148\$149\$150\$151\$152\$153\$154\$155\$156\$157\$158\$159\$160\$161\$162\$163\$164;
#X msg 3338 613 label \$165\$166\$167\$168\$169\$170\$171\$172\$173\$174\$175\$176\$177\$178\$179\$180\$181\$182\$183\$184\$185\$186\$187\$188\$189\$190\$191\$192\$193\$194\$195\$196\$197\$198\$199\$200\$201\$202\$203\$204\$205\$206;
#X obj 3407 43 r tradFR;
#X obj 3472 43 r tradEN;
#X obj 3599 42 r tradFR;
#X obj 3664 42 r tradEN;
#X msg 3599 65 label Enregistrer\ les\ réponses, f 33;
#X msg 3244 65 label Suivant;
#X msg 3407 66 label Précédent;
#X msg 3472 87 label Previous;
#X obj 3407 111 s thi_butt2;
#X obj 3599 130 s thi_butt3;
#X msg 3305 182 label Inventaire\ du\ handicap\ lié\ aux\ acouphènes\ (THI)\ \ \ \ \ \ \ \ \ \ \ \ \ \ \ \ \ \ \ \ \ \ \ \ \ \ \ \ \ \ \ \ Oui\ \ \ \ \ \ \ Parfois\ \ \ \ \ \ \ Non;
#X msg 3664 86 label \ \ \ \ \ \ \ \ \ \ Save\ responses, f 24;
#X msg 3309 86 label \ \ \ Next;
#X msg 4886 590 label \$1\$2\$3\$4\$5\$6\$7\$8\$9\$10\$11\$12\$13\$14\$15\$16\$17\$18\$19\$20\$21\$22\$23\$24\$25\$26\$27\$28\$29\$30\$31\$32\$33\$34\$35\$36\$37\$38\$39\$40\$41\$42;
#X obj 5385 649 s hq_comm4;
#X msg 5355 493 label \$43\$44\$45\$46\$47\$48\$49\$50\$51\$52\$53\$54\$55\$56\$57\$58\$59\$60\$61\$62\$63\$64\$65\$66\$67\$68\$69\$70\$71\$72\$73\$74\$75\$76\$77\$78\$79\$80\$81\$82\$83\$84\$85\$86\$87\$88;
#X msg 5385 593 label \$89\$90\$91\$92\$93\$94\$95\$96\$97\$98\$99\$100\$101\$102\$103\$104\$105\$106\$107\$108\$109\$110\$111\$112\$113\$114\$115\$116\$117\$118\$119\$120;
#X obj 5267 35 r tradFR;
#X obj 5332 35 r tradEN;
#X obj 5430 36 r tradFR;
#X obj 5495 36 r tradEN;
#X obj 5622 35 r tradFR;
#X obj 5687 35 r tradEN;
#X msg 5622 58 label Enregistrer\ les\ réponses, f 33;
#X msg 5267 58 label Suivant;
#X msg 5430 59 label Précédent;
#X msg 5495 80 label Previous;
#X msg 5687 79 label \ \ \ \ \ \ \ \ \ \ Save\ responses, f 24;
#X msg 5332 79 label \ \ \ Next;
#X obj 5267 103 s hq_butt1;
#X obj 5430 104 s hq_butt2;
#X obj 5622 123 s hq_butt3;
#X msg 5187 244 \ \ \ \ \ \ \ \ \ \ \ \ \ \ \ \ \ \ \ \ \ \ \ \ \ \ \ \ \ \ \ \ \ \ \ \ \ \ \ \ \ \ \ \ \ \ \ \ \ \ \ \ \ \ \ \ \ \ \ \ \ \ \ \ \ \ \ Non\ \ \ \ \ \ \ un\ peu\ \ \ \ \ modérément\ \ beaucoup;
#X msg 5206 190 Questionnaire\\\ d'hyperacousie\\\ (HQ)\\\ \\\ \\\ \\\ \\\ \\\ \\\ \\\ \\\ \\\ \\\ \\\ \\\ \\\ \\\ \\\ \\\ \\\ \\\ \\\ \\\ \\\ \\\ \\\ \\\ \\\ \\\ \\\ \\\ \\\ \\\ \\\ \\\ \\\ \\\ \\\ \\\ \\\ \\\ \\\ \\\ \\\ \\\ \\\ Oui\\\,\\\ \\\ \\\ \\\ \\\ \\\ \\\ Oui\\\,\\\ \\\ \\\ \\\ \\\ \\\ \\\ \\\ Oui\\\,, f 67;
#X msg 5334 319 Hyperacusis\\\ questionnaire\\\ (HQ)\\\ \\\ \\\ \\\ \\\ \\\ \\\ \\\ \\\ \\\ \\\ \\\ \\\ \\\ \\\ \\\ \\\ \\\ \\\ \\\ \\\ \\\ \\\ \\\ \\\ \\\ \\\ \\\ \\\ \\\ \\\ \\\ \\\ \\\ \\\ \\\ \\\ \\\ \\\ \\\ \\\ \\\ \\\ \\\ \\\ \\\ \\\ Yes\\\,\\\ \\\ \\\ \\\ \\\ \\\ \\\ \\\ Yes\\\,\\\ quite\\\ \\\ \\\ Yes\\\,, f 67;
#X msg 5323 375 \ \ \ \ \ \ \ \ \ \ \ \ \ \ \ \ \ \ \ \ \ \ \ \ \ \ \ \ \ \ \ \ \ \ \ \ \ \ \ \ \ \ \ \ \ \ \ \ \ \ \ \ \ \ \ \ \ \ \ \ \ \ \ \ \ \ \ No\ \ \ \ \ \ \ \ a\ little\ \ \ \ a\ lot\ \ \ \ \ \ \ \ a\ lot, f 67;
#X obj 6916 635 s ssq_comm2;
#X obj 7372 305 s ssq_comm3;
#X obj 7405 409 s ssq_comm4;
#X obj 7248 650 r tradFR;
#X obj 7348 650 r tradEN;
#X obj 7248 732 s ssq_comm1;
#X obj 7413 513 s ssq_comm5;
#X obj 7419 608 s ssq_comm6;
#X obj 6893 771 r tradFR;
#X obj 6958 771 r tradEN;
#X obj 7056 772 r tradFR;
#X obj 7121 772 r tradEN;
#X obj 7248 771 r tradFR;
#X obj 7313 771 r tradEN;
#X msg 7248 794 label Enregistrer\ les\ réponses, f 33;
#X msg 6893 794 label Suivant;
#X msg 7056 795 label Précédent;
#X msg 7121 816 label Previous;
#X msg 7313 815 label \ \ \ \ \ \ \ \ \ \ Save\ responses, f 24;
#X msg 6958 815 label \ \ \ Next;
#X obj 6893 839 s ssq_butt1;
#X obj 7056 840 s ssq_butt2;
#X obj 7248 859 s ssq_butt3;
#X msg 7248 673 label Habiletés\ auditives\ (15iSSQ);
#X msg 6916 569 label \$1\$2\$3\$4\$5\$6\$7\$8\$9\$10\$11\$12\$13\$14\$15\$16\$17\$18\$19\$20\$21\$22\$23\$24\$25\$26\$27\$28\$29\$30\$31\$32\$33\$34\$35\$36\$37\$38\$39\$40\$41\$42;
#X msg 7372 239 label \$43\$44\$45\$46\$47\$48\$49\$50\$51\$52\$53\$54\$55\$56\$57\$58\$59\$60\$61\$62\$63\$64\$65\$66\$67\$68\$69\$70\$71\$72\$73\$74\$75\$76\$77\$78\$79\$80\$81\$82\$83\$84\$85\$86;
#X msg 7405 343 label \$87\$88\$89\$90\$91\$92\$93\$94\$95\$96\$97\$98\$99\$100\$101\$102\$103\$104\$105\$106\$107\$108\$109\$110\$111\$112\$113\$114\$115\$116\$117\$118\$119\$120\$121\$122\$123\$124\$125\$126\$127\$128;
#X msg 7413 447 label \$129\$130\$131\$132\$133\$134\$135\$136\$137\$138\$139\$140\$141\$142\$143\$144\$145\$146\$147\$148\$149\$150\$151\$152\$153\$154\$155\$156\$157\$158\$159\$160\$161\$162\$163\$164;
#X msg 7419 542 label \$165\$166\$167\$168\$169\$170\$171\$172\$173\$174\$175\$176\$177\$178\$179\$180\$181\$182\$183\$184\$185\$186\$187\$188\$189\$190\$191\$192\$193\$194\$195\$196\$197\$198\$199\$200\$201\$202;
#X msg 7349 697 label Speech\\\,\\\ spatial\\\,\\\ and\\\ qualities\\\ of\\\ hearing\\\ (15iSSQ);
#X obj 1055 566 r tradFR;
#X obj 1120 566 r tradEN;
#X msg 1055 600 label Test\ terminé\ !;
#X msg 1119 630 label Test\ completed!;
#X obj 1055 662 s fin_test;
#X connect 0 0 1 0;
#X connect 0 0 5 0;
#X connect 1 0 9 0;
#X connect 1 1 10 0;
#X connect 3 0 2 2;
#X connect 4 0 2 1;
#X connect 5 0 6 0;
#X connect 5 1 2 0;
#X connect 5 2 4 0;
#X connect 5 3 3 0;
#X connect 13 0 257 0;
#X connect 14 0 258 0;
#X connect 15 0 17 0;
#X connect 16 0 18 0;
#X connect 17 0 240 0;
#X connect 18 0 240 0;
#X connect 19 0 21 0;
#X connect 20 0 22 0;
#X connect 21 0 241 0;
#X connect 22 0 241 0;
#X connect 23 0 148 0;
#X connect 24 0 149 0;
#X connect 25 0 151 0;
#X connect 26 0 152 0;
#X connect 27 0 153 0;
#X connect 28 0 154 0;
#X connect 29 0 155 0;
#X connect 30 0 150 0;
#X connect 31 0 35 0;
#X connect 32 0 36 0;
#X connect 33 0 37 0;
#X connect 34 0 38 0;
#X connect 35 0 246 0;
#X connect 36 0 246 0;
#X connect 37 0 247 0;
#X connect 38 0 247 0;
#X connect 39 0 100 0;
#X connect 40 0 101 0;
#X connect 41 0 103 0;
#X connect 42 0 102 0;
#X connect 43 0 468 0;
#X connect 44 0 469 0;
#X connect 45 0 47 0;
#X connect 46 0 48 0;
#X connect 47 0 251 0;
#X connect 48 0 251 0;
#X connect 49 0 53 0;
#X connect 50 0 54 0;
#X connect 51 0 55 0;
#X connect 52 0 56 0;
#X connect 53 0 252 0;
#X connect 54 0 252 0;
#X connect 55 0 253 0;
#X connect 56 0 253 0;
#X connect 57 0 63 0;
#X connect 58 0 64 0;
#X connect 59 0 61 0;
#X connect 60 0 62 0;
#X connect 61 0 255 0;
#X connect 62 0 255 0;
#X connect 63 0 254 0;
#X connect 64 0 254 0;
#X connect 66 0 104 0;
#X connect 67 0 133 0;
#X connect 68 0 70 0;
#X connect 69 0 71 0;
#X connect 70 0 261 0;
#X connect 71 0 261 0;
#X connect 72 0 78 0;
#X connect 73 0 79 0;
#X connect 74 0 80 0;
#X connect 75 0 81 0;
#X connect 76 0 82 0;
#X connect 77 0 83 0;
#X connect 78 0 262 0;
#X connect 79 0 262 0;
#X connect 80 0 263 0;
#X connect 81 0 263 0;
#X connect 82 0 264 0;
#X connect 83 0 264 0;
#X connect 84 0 88 0;
#X connect 85 0 89 0;
#X connect 86 0 90 0;
#X connect 87 0 91 0;
#X connect 88 0 265 0;
#X connect 89 0 265 0;
#X connect 90 0 266 0;
#X connect 91 0 266 0;
#X connect 92 0 94 0;
#X connect 93 0 95 0;
#X connect 94 0 256 0;
#X connect 95 0 256 0;
#X connect 100 0 248 0;
#X connect 101 0 248 0;
#X connect 102 0 249 0;
#X connect 103 0 249 0;
#X connect 104 0 260 0;
#X connect 106 0 108 0;
#X connect 107 0 109 0;
#X connect 108 0 267 0;
#X connect 109 0 267 0;
#X connect 110 0 112 0;
#X connect 111 0 113 0;
#X connect 112 0 268 0;
#X connect 113 0 268 0;
#X connect 114 0 116 0;
#X connect 115 0 117 0;
#X connect 116 0 269 0;
#X connect 117 0 269 0;
#X connect 118 0 120 0;
#X connect 119 0 121 0;
#X connect 120 0 270 0;
#X connect 121 0 270 0;
#X connect 126 0 123 0;
#X connect 126 0 125 0;
#X connect 127 0 122 0;
#X connect 127 0 124 0;
#X connect 130 0 132 0;
#X connect 131 0 175 0;
#X connect 132 0 275 0;
#X connect 133 0 260 0;
#X connect 135 0 137 0;
#X connect 136 0 174 0;
#X connect 137 0 276 0;
#X connect 139 0 141 0;
#X connect 140 0 173 0;
#X connect 141 0 277 0;
#X connect 144 0 488 0;
#X connect 145 0 470 0;
#X connect 146 0 483 0;
#X connect 147 0 490 0;
#X connect 148 0 242 0;
#X connect 149 0 242 0;
#X connect 150 0 245 0;
#X connect 151 0 243 0;
#X connect 152 0 243 0;
#X connect 153 0 244 0;
#X connect 154 0 244 0;
#X connect 155 0 245 0;
#X connect 157 0 159 0;
#X connect 158 0 160 0;
#X connect 159 0 271 0;
#X connect 160 0 271 0;
#X connect 161 0 163 0;
#X connect 162 0 164 0;
#X connect 163 0 272 0;
#X connect 164 0 272 0;
#X connect 165 0 167 0;
#X connect 166 0 168 0;
#X connect 167 0 273 0;
#X connect 168 0 273 0;
#X connect 169 0 171 0;
#X connect 170 0 172 0;
#X connect 171 0 274 0;
#X connect 172 0 274 0;
#X connect 173 0 277 0;
#X connect 174 0 276 0;
#X connect 175 0 275 0;
#X connect 177 0 179 0;
#X connect 178 0 180 0;
#X connect 179 0 278 0;
#X connect 180 0 278 0;
#X connect 181 0 183 0;
#X connect 182 0 184 0;
#X connect 183 0 234 0;
#X connect 184 0 234 0;
#X connect 185 0 187 0;
#X connect 186 0 188 0;
#X connect 187 0 235 0;
#X connect 188 0 235 0;
#X connect 189 0 191 0;
#X connect 190 0 192 0;
#X connect 191 0 237 0;
#X connect 192 0 237 0;
#X connect 193 0 195 0;
#X connect 194 0 200 0;
#X connect 195 0 238 0;
#X connect 196 0 198 0;
#X connect 197 0 199 0;
#X connect 198 0 232 0;
#X connect 199 0 232 0;
#X connect 200 0 238 0;
#X connect 204 0 207 0;
#X connect 205 0 208 0;
#X connect 206 0 213 0;
#X connect 207 0 210 0;
#X connect 207 1 209 0;
#X connect 207 2 206 1;
#X connect 208 0 212 0;
#X connect 208 1 211 0;
#X connect 208 2 206 1;
#X connect 209 0 206 0;
#X connect 210 0 206 0;
#X connect 211 0 206 0;
#X connect 212 0 206 0;
#X connect 214 0 217 0;
#X connect 215 0 218 0;
#X connect 216 0 233 0;
#X connect 217 0 220 0;
#X connect 217 1 219 0;
#X connect 217 2 216 1;
#X connect 218 0 222 0;
#X connect 218 1 221 0;
#X connect 218 2 216 1;
#X connect 219 0 216 0;
#X connect 220 0 216 0;
#X connect 221 0 216 0;
#X connect 222 0 216 0;
#X connect 223 0 226 0;
#X connect 224 0 227 0;
#X connect 225 0 236 0;
#X connect 226 0 229 0;
#X connect 226 1 228 0;
#X connect 226 2 225 1;
#X connect 227 0 231 0;
#X connect 227 1 230 0;
#X connect 227 2 225 1;
#X connect 228 0 225 0;
#X connect 229 0 225 0;
#X connect 230 0 225 0;
#X connect 231 0 225 0;
#X connect 257 0 239 0;
#X connect 258 0 239 0;
#X connect 279 0 282 0;
#X connect 280 0 281 0;
#X connect 280 0 283 0;
#X connect 281 0 280 1;
#X connect 282 0 280 0;
#X connect 283 0 299 0;
#X connect 284 0 293 0;
#X connect 284 0 287 1;
#X connect 284 0 286 1;
#X connect 285 0 280 1;
#X connect 286 0 493 0;
#X connect 286 0 491 0;
#X connect 286 0 494 0;
#X connect 287 0 288 0;
#X connect 287 0 286 1;
#X connect 288 0 287 1;
#X connect 289 0 290 0;
#X connect 290 0 287 0;
#X connect 291 0 297 0;
#X connect 291 0 301 0;
#X connect 292 0 291 0;
#X connect 293 0 291 1;
#X connect 294 0 286 0;
#X connect 295 0 292 0;
#X connect 295 1 289 0;
#X connect 295 2 287 0;
#X connect 297 0 291 1;
#X connect 299 0 313 0;
#X connect 299 1 300 0;
#X connect 300 0 301 1;
#X connect 301 0 294 0;
#X connect 304 0 311 0;
#X connect 305 0 311 0;
#X connect 306 0 307 0;
#X connect 307 0 308 0;
#X connect 307 1 304 0;
#X connect 308 0 312 0;
#X connect 308 1 285 0;
#X connect 308 2 284 0;
#X connect 309 0 308 0;
#X connect 309 1 305 0;
#X connect 310 0 309 0;
#X connect 312 0 279 0;
#X connect 313 0 295 0;
#X connect 314 0 317 0;
#X connect 315 0 318 0;
#X connect 316 0 395 0;
#X connect 317 0 510 0;
#X connect 317 1 511 0;
#X connect 317 2 316 1;
#X connect 318 0 513 0;
#X connect 318 1 512 0;
#X connect 318 2 316 1;
#X connect 319 0 322 0;
#X connect 320 0 321 0;
#X connect 320 0 323 0;
#X connect 321 0 320 1;
#X connect 322 0 320 0;
#X connect 323 0 339 0;
#X connect 324 0 333 0;
#X connect 324 0 327 1;
#X connect 324 0 326 1;
#X connect 325 0 320 1;
#X connect 326 0 475 0;
#X connect 326 0 473 0;
#X connect 326 0 474 0;
#X connect 326 0 476 0;
#X connect 326 0 477 0;
#X connect 327 0 328 0;
#X connect 327 0 326 1;
#X connect 328 0 327 1;
#X connect 329 0 330 0;
#X connect 330 0 327 0;
#X connect 331 0 337 0;
#X connect 331 0 341 0;
#X connect 332 0 331 0;
#X connect 333 0 331 1;
#X connect 334 0 326 0;
#X connect 335 0 332 0;
#X connect 335 1 329 0;
#X connect 335 2 327 0;
#X connect 337 0 331 1;
#X connect 339 0 351 0;
#X connect 339 1 340 0;
#X connect 340 0 341 1;
#X connect 341 0 334 0;
#X connect 344 0 345 0;
#X connect 345 0 346 0;
#X connect 345 1 352 0;
#X connect 346 0 350 0;
#X connect 346 1 325 0;
#X connect 346 2 324 0;
#X connect 347 0 346 0;
#X connect 347 1 353 0;
#X connect 348 0 347 0;
#X connect 350 0 319 0;
#X connect 351 0 335 0;
#X connect 352 0 349 0;
#X connect 353 0 349 0;
#X connect 354 0 357 0;
#X connect 355 0 356 0;
#X connect 355 0 358 0;
#X connect 356 0 355 1;
#X connect 357 0 355 0;
#X connect 358 0 374 0;
#X connect 359 0 368 0;
#X connect 359 0 362 1;
#X connect 359 0 361 1;
#X connect 360 0 355 1;
#X connect 361 0 539 0;
#X connect 361 0 538 0;
#X connect 361 0 540 0;
#X connect 361 0 541 0;
#X connect 361 0 542 0;
#X connect 362 0 363 0;
#X connect 362 0 361 1;
#X connect 363 0 362 1;
#X connect 364 0 365 0;
#X connect 365 0 362 0;
#X connect 366 0 372 0;
#X connect 366 0 376 0;
#X connect 367 0 366 0;
#X connect 368 0 366 1;
#X connect 369 0 361 0;
#X connect 370 0 367 0;
#X connect 370 1 364 0;
#X connect 370 2 362 0;
#X connect 372 0 366 1;
#X connect 374 0 386 0;
#X connect 374 1 375 0;
#X connect 375 0 376 1;
#X connect 376 0 369 0;
#X connect 379 0 380 0;
#X connect 380 0 381 0;
#X connect 380 1 387 0;
#X connect 381 0 385 0;
#X connect 381 1 360 0;
#X connect 381 2 359 0;
#X connect 382 0 381 0;
#X connect 382 1 388 0;
#X connect 383 0 382 0;
#X connect 385 0 354 0;
#X connect 386 0 370 0;
#X connect 387 0 384 0;
#X connect 388 0 384 0;
#X connect 396 0 402 0;
#X connect 397 0 403 0;
#X connect 399 0 404 0;
#X connect 400 0 405 0;
#X connect 402 0 398 0;
#X connect 403 0 398 0;
#X connect 404 0 401 0;
#X connect 405 0 401 0;
#X connect 406 0 395 0;
#X connect 406 1 393 0;
#X connect 406 2 394 0;
#X connect 406 3 492 0;
#X connect 407 0 409 0;
#X connect 408 0 410 0;
#X connect 409 0 450 0;
#X connect 410 0 450 0;
#X connect 411 0 413 0;
#X connect 412 0 414 0;
#X connect 413 0 451 0;
#X connect 414 0 451 0;
#X connect 415 0 417 0;
#X connect 416 0 418 0;
#X connect 417 0 455 0;
#X connect 418 0 455 0;
#X connect 419 0 456 0;
#X connect 420 0 457 0;
#X connect 421 0 423 0;
#X connect 422 0 424 0;
#X connect 423 0 459 0;
#X connect 424 0 459 0;
#X connect 425 0 428 0;
#X connect 426 0 443 0;
#X connect 427 0 444 0;
#X connect 428 0 442 0;
#X connect 428 1 441 0;
#X connect 428 2 427 1;
#X connect 429 0 432 0;
#X connect 430 0 433 0;
#X connect 431 0 449 0;
#X connect 432 0 446 0;
#X connect 432 1 445 0;
#X connect 432 2 431 1;
#X connect 433 0 448 0;
#X connect 433 1 447 0;
#X connect 433 2 431 1;
#X connect 434 0 437 0;
#X connect 435 0 438 0;
#X connect 436 0 454 0;
#X connect 437 0 452 0;
#X connect 437 1 439 0;
#X connect 437 2 436 1;
#X connect 438 0 453 0;
#X connect 438 1 440 0;
#X connect 438 2 436 1;
#X connect 439 0 436 0;
#X connect 440 0 436 0;
#X connect 441 0 427 0;
#X connect 442 0 427 0;
#X connect 443 0 444 0;
#X connect 445 0 431 0;
#X connect 446 0 431 0;
#X connect 447 0 431 0;
#X connect 448 0 431 0;
#X connect 452 0 436 0;
#X connect 453 0 436 0;
#X connect 456 0 458 0;
#X connect 457 0 458 0;
#X connect 460 0 444 0;
#X connect 460 0 449 0;
#X connect 460 0 450 0;
#X connect 460 0 451 0;
#X connect 460 0 454 0;
#X connect 460 0 455 0;
#X connect 460 0 458 0;
#X connect 461 0 398 0;
#X connect 461 1 519 0;
#X connect 461 2 514 0;
#X connect 461 3 515 0;
#X connect 461 4 516 0;
#X connect 461 5 520 0;
#X connect 461 6 521 0;
#X connect 462 0 213 0;
#X connect 462 0 233 0;
#X connect 462 0 234 0;
#X connect 462 0 235 0;
#X connect 462 0 236 0;
#X connect 462 0 237 0;
#X connect 462 0 238 0;
#X connect 463 0 389 0;
#X connect 463 1 390 0;
#X connect 463 2 391 0;
#X connect 463 3 392 0;
#X connect 463 4 471 0;
#X connect 463 5 472 0;
#X connect 464 0 271 0;
#X connect 465 0 268 0;
#X connect 465 0 269 0;
#X connect 465 0 270 0;
#X connect 466 0 262 0;
#X connect 466 0 265 0;
#X connect 467 0 242 0;
#X connect 467 0 243 0;
#X connect 467 0 244 0;
#X connect 467 0 250 0;
#X connect 467 0 252 0;
#X connect 467 0 254 0;
#X connect 467 0 256 0;
#X connect 467 0 245 0;
#X connect 467 0 246 0;
#X connect 467 0 247 0;
#X connect 467 0 248 0;
#X connect 468 0 250 0;
#X connect 469 0 250 0;
#X connect 470 0 389 0;
#X connect 473 0 390 0;
#X connect 474 0 391 0;
#X connect 475 0 392 0;
#X connect 476 0 471 0;
#X connect 477 0 472 0;
#X connect 478 0 484 0;
#X connect 479 0 485 0;
#X connect 480 0 482 0;
#X connect 481 0 489 0;
#X connect 482 0 487 0;
#X connect 483 0 259 0;
#X connect 484 0 486 0;
#X connect 485 0 486 0;
#X connect 488 0 389 0;
#X connect 489 0 487 0;
#X connect 490 0 259 0;
#X connect 491 0 393 0;
#X connect 493 0 394 0;
#X connect 494 0 492 0;
#X connect 495 0 502 0;
#X connect 496 0 506 0;
#X connect 497 0 503 0;
#X connect 498 0 504 0;
#X connect 499 0 501 0;
#X connect 500 0 505 0;
#X connect 501 0 509 0;
#X connect 502 0 507 0;
#X connect 503 0 508 0;
#X connect 504 0 508 0;
#X connect 505 0 509 0;
#X connect 506 0 507 0;
#X connect 510 0 316 0;
#X connect 511 0 316 0;
#X connect 512 0 316 0;
#X connect 513 0 316 0;
#X connect 517 0 537 0;
#X connect 518 0 543 0;
#X connect 522 0 529 0;
#X connect 523 0 533 0;
#X connect 524 0 530 0;
#X connect 525 0 531 0;
#X connect 526 0 528 0;
#X connect 527 0 532 0;
#X connect 528 0 536 0;
#X connect 529 0 534 0;
#X connect 530 0 535 0;
#X connect 531 0 535 0;
#X connect 532 0 536 0;
#X connect 533 0 534 0;
#X connect 537 0 519 0;
#X connect 538 0 514 0;
#X connect 539 0 515 0;
#X connect 540 0 516 0;
#X connect 541 0 520 0;
#X connect 542 0 521 0;
#X connect 543 0 519 0;
#X connect 544 0 546 0;
#X connect 545 0 547 0;
#X connect 546 0 548 0;
#X connect 547 0 548 0;
#X restore 392 33 pd Langue;
#X obj 737 205 s getxtConfig_0;
#X obj 920 176 text get Config;
#X msg 920 149 1;
#X text 958 138 Ligne 1 = fréquences audiométrie tonale, f 21;
#X obj 920 204 s getxtConfig_1;
#X text 739 12 Fichier txt configuration;
#X text 8 476 Fiche txt fiche;
#X obj 392 8 r getxtConfig_0;
#X obj 15 281 cnv 10 1 1 empty main_comm1 Civilité..........: 0 10 0 12 #fcfcfc #000000 0;
#X obj 15 373 cnv 10 1 1 empty main_comm3 Prénom............: 0 10 0 12 #fcfcfc #000000 0;
#X obj 15 327 cnv 10 1 1 empty main_comm2 Nom...............: 0 10 0 12 #fcfcfc #000000 0;
#X obj 15 418 cnv 10 1 1 empty main_comm4 Date\ de\ naissance\ : 0 10 0 12 #fcfcfc #000000 0;
#X msg 958 91 write config.txt;
#X msg 769 90 read config.txt;
#X obj 454 594 r tradEN;
#X obj 374 594 r tradFR;
#X obj 374 664 spigot;
#X msg 454 626 0;
#X msg 494 626 1;
#X msg 374 625 1;
#X msg 414 626 0;
#X obj 455 664 spigot;
#X msg 374 693 list Informations participant;
#X msg 395 722 list Participant information;
#X obj 10 10 tgl 19 0 empty empty empty 0 -10 0 12 #fcfcfc #000000 #000000 0 1;
#X obj 529 8 loadbang;
#X msg 529 32 1;
#X obj 529 63 sel 0;
#X obj 529 111 s pd-main.pd;
#X msg 529 87 menuclose;
#X connect 0 0 27 0;
#X connect 0 0 55 2;
#X connect 1 0 47 0;
#X connect 2 0 35 0;
#X connect 3 0 44 0;
#X connect 4 0 46 0;
#X connect 5 0 14 0;
#X connect 6 0 31 0;
#X connect 7 0 5 0;
#X connect 8 0 13 0;
#X connect 9 0 24 0;
#X connect 9 0 25 0;
#X connect 9 0 26 0;
#X connect 9 0 57 0;
#X connect 10 0 15 0;
#X connect 11 0 2 0;
#X connect 16 0 17 0;
#X connect 18 0 16 1;
#X connect 19 0 55 1;
#X connect 20 0 23 1;
#X connect 21 0 37 1;
#X connect 22 0 19 0;
#X connect 22 0 20 0;
#X connect 22 0 21 0;
#X connect 22 0 56 0;
#X connect 24 0 55 0;
#X connect 25 0 23 0;
#X connect 26 0 37 0;
#X connect 27 0 42 0;
#X connect 27 1 58 0;
#X connect 27 2 6 0;
#X connect 27 3 16 0;
#X connect 29 0 28 1;
#X connect 30 0 28 0;
#X connect 32 0 33 0;
#X connect 35 0 36 0;
#X connect 35 1 32 0;
#X connect 35 2 34 0;
#X connect 40 0 41 0;
#X connect 42 0 43 0;
#X connect 43 0 48 0;
#X connect 44 0 45 0;
#X connect 45 0 49 0;
#X connect 46 0 12 0;
#X connect 46 1 8 0;
#X connect 46 2 7 0;
#X connect 46 3 39 0;
#X connect 47 0 2 0;
#X connect 48 0 1 0;
#X connect 49 0 4 0;
#X connect 56 0 38 1;
#X connect 57 0 38 0;
#X connect 58 0 30 0;
#X connect 58 1 30 0;
#X connect 58 2 30 0;
#X connect 58 3 30 0;
#X connect 58 4 88 0;
#X connect 58 4 93 0;
#X connect 58 5 29 0;
#X connect 61 0 71 0;
#X connect 65 0 67 0;
#X connect 66 0 72 0;
#X connect 67 0 68 0;
#X connect 67 0 74 0;
#X connect 67 1 85 0;
#X connect 68 0 66 0;
#X connect 70 0 84 0;
#X connect 73 0 76 0;
#X connect 74 0 73 0;
#X connect 79 0 61 0;
#X connect 84 0 64 0;
#X connect 85 0 64 0;
#X connect 86 0 89 0;
#X connect 86 0 90 0;
#X connect 87 0 91 0;
#X connect 87 0 92 0;
#X connect 88 0 94 0;
#X connect 89 0 88 1;
#X connect 90 0 93 1;
#X connect 91 0 88 1;
#X connect 92 0 93 1;
#X connect 93 0 95 0;
#X connect 94 0 28 0;
#X connect 95 0 28 0;
#X connect 96 0 99 0;
#X connect 97 0 98 0;
#X connect 98 0 96 0;
#X connect 99 0 101 0;
#X connect 101 0 100 0;
#X coords 0 0 1 1 385 460 2 0 0;
#X restore 12 12 pd part_id;
#N canvas 4 0 3200 1775 tests 0;
#X obj 9 105 cnv 10 1 1 empty main_comm8 Audiométrie\ vocale\ [NON\ CALIBRE] 0 10 0 12 #fcfcfc #000000 0;
#X obj 234 128 bng 40 250 50 0 empty main_bout5 MRT 45 20 0 12 #fcfcfc #000000 #000000;
#X msg 417 248 vis 1;
#X obj 10 129 bng 40 250 50 0 empty main_bout6 Chiffres 45 20 0 12 #fcfcfc #000000 #000000;
#X msg 417 127 vis 1;
#X obj 117 129 bng 40 250 50 0 empty main_bout7 Logatomes 45 20 0 12 #fcfcfc #000000 #000000;
#X msg 417 185 vis 1;
#X obj 9 283 cnv 10 1 1 empty main_comm10 Hyperacousie 0 10 0 12 #fcfcfc #000000 0;
#X obj 10 307 bng 40 250 50 0 empty empty HQ 45 20 0 12 #fcfcfc #000000 #000000;
#X msg 417 466 vis 1;
#X obj 117 307 bng 40 250 50 0 empty main_bout11 EVA 45 20 0 12 #fcfcfc #000000 #000000;
#X msg 417 521 vis 1;
#X obj 9 194 cnv 10 1 1 empty main_comm9 Acouphènes 0 10 0 12 #fcfcfc #000000 0;
#X obj 10 218 bng 40 250 50 0 empty empty THI 45 20 0 12 #fcfcfc #000000 #000000;
#X obj 117 218 bng 40 250 50 0 empty main_bout9 EVA 45 20 0 12 #fcfcfc #000000 #000000;
#X msg 417 359 vis 1;
#X msg 417 411 vis 1;
#X obj 9 372 cnv 10 1 1 empty main_comm11 Divers 0 10 0 12 #fcfcfc #000000 0;
#X obj 10 396 bng 40 250 50 0 empty empty 15iSSQ 45 20 0 12 #fcfcfc #000000 #000000;
#X msg 417 574 vis 1;
#X obj 9 15 cnv 10 1 1 empty main_comm7 Audiométrie\ tonale 0 10 0 12 #fcfcfc #000000 0;
#X obj 9 40 bng 40 250 50 0 empty empty Hughson\ &\ Westlake 45 20 0 12 #fcfcfc #000000 #000000;
#X msg 417 18 vis 1;
#X msg 417 74 vis 1;
#X obj 234 40 bng 40 250 50 0 empty main_bout4 Graphique 45 20 0 12 #ffffff #000000 #000000;
#X obj 474 73 s ATraz;
#X obj 571 42 ptaudiometry;
#X obj 417 42 s pd-ptaudiometry.pd;
#X obj 613 98 ptaudiometry_graph;
#X obj 417 98 s pd-ptaudiometry_graph.pd;
#X obj 627 272 speechaudiometry_mrt;
#X obj 417 272 s pd-speechaudiometry_mrt.pd;
#X obj 417 151 s pd-speechaudiometry_digits.pd;
#X obj 648 151 speechaudiometry_digits;
#X obj 669 209 speechaudiometry_logatomes;
#X obj 417 209 s pd-speechaudiometry_logatomes.pd;
#X obj 592 545 hyperacusis_vas;
#X obj 417 545 s pd-hyperacusis_vas.pd;
#X obj 585 490 hyperacusis_hq;
#X obj 417 490 s pd-hyperacusis_hq.pd;
#X obj 571 383 tinnitus_thi;
#X obj 417 383 s pd-tinnitus_thi.pd;
#X obj 571 435 tinnitus_vas;
#X obj 417 435 s pd-tinnitus_vas.pd;
#X obj 564 598 misc_15issq;
#X obj 417 598 s pd-misc_15issq.pd;
#X obj 0 92 cnv 1 385 1 empty empty empty 0 0 0 12 #202020 #404040 0;
#X obj 0 182 cnv 1 385 1 empty empty empty 0 0 0 12 #202020 #404040 0;
#X obj 0 271 cnv 1 385 1 empty empty empty 0 0 0 12 #202020 #404040 0;
#X obj 0 360 cnv 1 385 1 empty empty empty 0 0 0 12 #202020 #404040 0;
#X msg 417 305 vis 1;
#X obj 312 128 bng 40 250 50 0 empty empty CRM 45 20 0 12 #fcfcfc #000000 #000000;
#X obj 627 329 speechaudiometry_crm;
#X obj 417 329 s pd-speechaudiometry_crm.pd;
#X connect 1 0 2 0;
#X connect 2 0 31 0;
#X connect 3 0 4 0;
#X connect 4 0 32 0;
#X connect 5 0 6 0;
#X connect 6 0 35 0;
#X connect 8 0 9 0;
#X connect 9 0 39 0;
#X connect 10 0 11 0;
#X connect 11 0 37 0;
#X connect 13 0 15 0;
#X connect 14 0 16 0;
#X connect 15 0 41 0;
#X connect 16 0 43 0;
#X connect 18 0 19 0;
#X connect 19 0 45 0;
#X connect 21 0 22 0;
#X connect 22 0 27 0;
#X connect 23 0 29 0;
#X connect 24 0 23 0;
#X connect 24 0 25 0;
#X connect 50 0 53 0;
#X connect 51 0 50 0;
#X coords 0 0 1 1 385 460 2 0 0;
#X restore 407 12 pd tests;
#X coords 0 0 0.125 0.125 0 0 0;
